<?xml version="1.0" standalone="no"?>
<!DOCTYPE svg PUBLIC "-//W3C//DTD SVG 20010904//EN"
 "http://www.w3.org/TR/2001/REC-SVG-20010904/DTD/svg10.dtd">
<svg version="1.0" xmlns="http://www.w3.org/2000/svg"
 width="700.000000pt" height="700.000000pt" viewBox="0 0 700.000000 700.000000"
 preserveAspectRatio="xMidYMid meet">
<metadata>
Created by potrace 1.14, written by Peter Selinger 2001-2017
</metadata>
<g transform="translate(0.000000,700.000000) scale(0.100000,-0.100000)"
fill="#000000" stroke="none">
<path d="M0 3500 l0 -3500 3500 0 3500 0 0 3500 0 3500 -3500 0 -3500 0 0
-3500z m1615 1056 c335 -6 404 -22 522 -122 138 -117 203 -311 174 -517 -18
-131 -81 -229 -193 -302 -40 -27 -77 -52 -81 -56 -5 -4 24 -24 64 -45 104 -55
176 -129 230 -238 43 -87 44 -92 48 -201 2 -90 -1 -129 -18 -195 -51 -202
-193 -352 -386 -408 -193 -57 -357 -69 -777 -57 l-278 7 0 1073 0 1072 223 -4
c122 -1 335 -5 472 -7z m2623 -103 l3 -113 -348 -2 -348 -3 -3 -952 -2 -953
-135 0 -135 0 -2 953 -3 952 -347 3 -348 2 0 115 0 115 833 -2 832 -3 3 -112z
m997 103 c398 -6 483 -24 617 -132 81 -65 137 -137 177 -225 40 -89 54 -165
55 -299 1 -168 -29 -270 -120 -397 -52 -73 -135 -133 -245 -176 -138 -55 -156
-57 -536 -57 l-353 0 -2 -417 -3 -418 -135 0 -135 0 -3 1055 c-1 580 0 1060 2
1066 3 7 69 9 202 7 110 -2 325 -5 479 -7z"/>
<path d="M1208 4334 c-5 -4 -8 -160 -8 -346 l0 -338 148 -2 c326 -6 401 2 510
55 67 32 118 81 154 149 20 37 23 58 23 148 0 95 -3 110 -29 163 -34 70 -91
115 -186 148 -60 21 -87 23 -335 27 -148 2 -273 0 -277 -4z"/>
<path d="M1308 3433 l-108 -4 0 -389 0 -390 253 0 c138 0 281 5 317 11 84 13
177 56 223 104 97 100 132 290 81 439 -22 65 -118 167 -192 203 -55 27 -59 27
-261 29 -113 0 -254 -1 -313 -3z"/>
<path d="M4830 3923 l0 -420 278 -6 c337 -8 407 -1 515 56 139 73 194 204 176
417 -15 178 -115 292 -302 347 -40 12 -122 17 -359 20 l-308 5 0 -419z"/>
</g>
</svg>
